<svg width="357" height="133" viewBox="0 0 357 133" fill="none" xmlns="http://www.w3.org/2000/svg">
<g clip-path="url(#clip0_6137_17677)">
<path d="M1.62695 77.7539C7.85362 66.0437 32.4298 66.9344 56.5195 79.7432C80.6092 92.552 95.0898 112.428 88.8633 124.139C82.6367 135.849 58.0605 134.958 33.9707 122.149C9.88105 109.341 -4.59952 89.4642 1.62695 77.7539ZM107.831 16.9648C121.094 16.965 131.846 39.0829 131.846 66.3662C131.846 93.6496 121.094 115.767 107.831 115.768C94.5682 115.768 83.8164 93.6497 83.8164 66.3662C83.8164 39.0828 94.5683 16.9648 107.831 16.9648ZM33.8994 10.8545C57.9892 -1.9542 82.5655 -2.84411 88.792 8.86621C95.0179 20.5766 80.5369 40.453 56.4473 53.2617C32.3576 66.0704 7.78147 66.961 1.55469 55.251C-4.67182 43.5406 9.80951 23.6633 33.8994 10.8545Z" fill="white"/>
</g>
<g clip-path="url(#clip1_6137_17677)">
<path d="M296.42 115.774H281.946V16.9639H316.034C336.976 16.9639 353.346 26.5499 353.346 46.9018C353.346 60.9122 344.792 71.0881 330.929 74.0376C336.185 77.1392 342.111 83.0655 347.582 94.9183L357.006 115.774H340.783L333.436 99.1088C327.537 87.4581 322.671 79.5148 308.808 79.5148H296.567L296.42 115.774ZM316.182 30.5523H296.715L296.567 66.6433H315.887C328.57 66.6433 337.861 60.1748 337.861 48.2291C337.861 35.9885 328.127 30.5523 316.182 30.5523Z" fill="white"/>
<path d="M255.672 16.9639H270.715V115.774H255.672V16.9639Z" fill="white"/>
<path d="M158.194 115.774L184.758 30.4379C187.661 21.3103 194.773 16.9639 202.902 16.9639C211.176 16.9639 218.288 21.3103 221.192 30.4379L247.755 115.774H232.659L224.258 87.9322H181.498L173.145 115.774H158.194ZM197.531 34.7844L185.611 74.603H220.338L208.563 34.7844C207.547 31.7419 205.805 30.2931 203.047 30.2931C200.144 30.2931 198.402 31.7419 197.531 34.7844Z" fill="white"/>
</g>
<defs>
<clipPath id="clip0_6137_17677">
<rect width="131.736" height="131.736" fill="white" transform="translate(0.110352 0.633789)"/>
</clipPath>
<clipPath id="clip1_6137_17677">
<rect width="198.812" height="98.8099" fill="white" transform="translate(158.194 16.9639)"/>
</clipPath>
</defs>
</svg>
